<svg height="140" viewBox="0 0 740 1009" fill="none" xmlns="http://www.w3.org/2000/svg">
<path d="M73.9611 973H66.0051V864.37H73.9611V910.729C77.3271 907.669 81.0501 905.17 85.1301 903.232C89.2101 901.192 93.6981 900.172 98.5941 900.172C102.572 900.172 106.04 900.784 108.998 902.008C111.956 903.13 114.353 904.762 116.189 906.904C118.127 908.944 119.555 911.392 120.473 914.248C121.493 917.002 122.003 920.062 122.003 923.428V973H114.047V925.876C114.047 918.838 112.466 913.891 109.304 911.035C106.142 908.077 101.96 906.598 96.7581 906.598C93.0861 906.598 89.2611 907.618 85.2831 909.658C81.3051 911.596 77.5311 914.248 73.9611 917.614V973ZM143.647 907.363C148.441 904.813 152.827 902.977 156.805 901.855C160.885 900.733 165.22 900.172 169.81 900.172C173.074 900.172 176.134 900.631 178.99 901.549C181.948 902.467 184.498 903.946 186.64 905.986C188.884 908.026 190.618 910.729 191.842 914.095C193.168 917.359 193.831 921.388 193.831 926.182V973H188.323L186.64 963.514H186.334C183.376 967.084 179.908 969.787 175.93 971.623C171.952 973.357 167.515 974.224 162.619 974.224C159.253 974.224 156.142 973.765 153.286 972.847C150.43 971.827 147.931 970.399 145.789 968.563C143.749 966.727 142.117 964.534 140.893 961.984C139.771 959.332 139.21 956.425 139.21 953.263C139.21 949.489 139.975 946.174 141.505 943.318C143.035 940.462 145.177 938.116 147.931 936.28C150.685 934.342 153.949 932.914 157.723 931.996C161.599 931.078 165.883 930.619 170.575 930.619H185.875V925.876C185.875 918.94 184.345 913.993 181.285 911.035C178.225 908.077 174.247 906.598 169.351 906.598C166.393 906.598 162.976 907.057 159.1 907.975C155.224 908.893 151.093 910.576 146.707 913.024L143.647 907.363ZM185.875 936.892L173.176 937.045C168.586 937.147 164.659 937.657 161.395 938.575C158.131 939.391 155.428 940.513 153.286 941.941C151.246 943.267 149.767 944.899 148.849 946.837C147.931 948.673 147.472 950.662 147.472 952.804C147.472 955.456 147.931 957.751 148.849 959.689C149.767 961.525 150.991 963.055 152.521 964.279C154.051 965.503 155.836 966.421 157.876 967.033C160.018 967.543 162.262 967.798 164.608 967.798C166.444 967.798 168.331 967.594 170.269 967.186C172.207 966.676 174.094 965.962 175.93 965.044C177.868 964.024 179.704 962.8 181.438 961.372C183.172 959.842 184.651 958.006 185.875 955.864V936.892ZM253.025 910.117C247.925 907.771 242.366 906.598 236.348 906.598C230.84 906.598 226.709 907.771 223.955 910.117C221.201 912.361 219.824 915.268 219.824 918.838C219.824 922.408 220.997 925.162 223.343 927.1C225.689 928.936 229.82 930.721 235.736 932.455L240.326 933.832C246.14 935.566 250.577 938.116 253.637 941.482C256.697 944.848 258.227 948.979 258.227 953.875C258.227 956.731 257.666 959.434 256.544 961.984C255.422 964.432 253.79 966.574 251.648 968.41C249.506 970.246 246.803 971.674 243.539 972.694C240.377 973.714 236.705 974.224 232.523 974.224C227.933 974.224 223.904 973.816 220.436 973C216.968 972.286 213.908 971.317 211.256 970.093L213.398 963.82C216.05 965.146 218.804 966.166 221.66 966.88C224.516 967.492 227.882 967.798 231.758 967.798C237.572 967.798 242.06 966.676 245.222 964.432C248.384 962.188 249.965 958.975 249.965 954.793C249.965 951.529 248.792 948.724 246.446 946.378C244.202 943.93 240.173 941.788 234.359 939.952L229.463 938.422C217.529 934.648 211.562 928.375 211.562 919.603C211.562 916.747 212.123 914.146 213.245 911.8C214.469 909.352 216.101 907.312 218.141 905.68C220.283 903.946 222.782 902.62 225.638 901.702C228.596 900.682 231.86 900.172 235.43 900.172C238.694 900.172 242.06 900.427 245.528 900.937C248.996 901.447 252.158 902.416 255.014 903.844L253.025 910.117ZM285.083 973H277.127V864.37H285.083V910.729C288.449 907.669 292.172 905.17 296.252 903.232C300.332 901.192 304.82 900.172 309.716 900.172C313.694 900.172 317.162 900.784 320.12 902.008C323.078 903.13 325.475 904.762 327.311 906.904C329.249 908.944 330.677 911.392 331.595 914.248C332.615 917.002 333.125 920.062 333.125 923.428V973H325.169V925.876C325.169 918.838 323.588 913.891 320.426 911.035C317.264 908.077 313.082 906.598 307.88 906.598C304.208 906.598 300.383 907.618 296.405 909.658C292.427 911.596 288.653 914.248 285.083 917.614V973ZM425.143 907.21H400.969V954.334C400.969 959.128 402.04 962.392 404.182 964.126C406.324 965.758 409.282 966.574 413.056 966.574C416.014 966.574 418.768 966.319 421.318 965.809C423.868 965.197 426.01 964.585 427.744 963.973L428.968 969.94C426.928 970.756 424.429 971.47 421.471 972.082C418.513 972.694 415.249 973 411.679 973C405.559 973 400.918 971.572 397.756 968.716C394.594 965.758 393.013 961.321 393.013 955.405V907.21H380.008V901.09H393.013V878.14H400.969V901.09H425.143V907.21ZM441.728 907.363C446.522 904.813 450.908 902.977 454.886 901.855C458.966 900.733 463.301 900.172 467.891 900.172C471.155 900.172 474.215 900.631 477.071 901.549C480.029 902.467 482.579 903.946 484.721 905.986C486.965 908.026 488.699 910.729 489.923 914.095C491.249 917.359 491.912 921.388 491.912 926.182V973H486.404L484.721 963.514H484.415C481.457 967.084 477.989 969.787 474.011 971.623C470.033 973.357 465.596 974.224 460.7 974.224C457.334 974.224 454.223 973.765 451.367 972.847C448.511 971.827 446.012 970.399 443.87 968.563C441.83 966.727 440.198 964.534 438.974 961.984C437.852 959.332 437.291 956.425 437.291 953.263C437.291 949.489 438.056 946.174 439.586 943.318C441.116 940.462 443.258 938.116 446.012 936.28C448.766 934.342 452.03 932.914 455.804 931.996C459.68 931.078 463.964 930.619 468.656 930.619H483.956V925.876C483.956 918.94 482.426 913.993 479.366 911.035C476.306 908.077 472.328 906.598 467.432 906.598C464.474 906.598 461.057 907.057 457.181 907.975C453.305 908.893 449.174 910.576 444.788 913.024L441.728 907.363ZM483.956 936.892L471.257 937.045C466.667 937.147 462.74 937.657 459.476 938.575C456.212 939.391 453.509 940.513 451.367 941.941C449.327 943.267 447.848 944.899 446.93 946.837C446.012 948.673 445.553 950.662 445.553 952.804C445.553 955.456 446.012 957.751 446.93 959.689C447.848 961.525 449.072 963.055 450.602 964.279C452.132 965.503 453.917 966.421 455.957 967.033C458.099 967.543 460.343 967.798 462.689 967.798C464.525 967.798 466.412 967.594 468.35 967.186C470.288 966.676 472.175 965.962 474.011 965.044C475.949 964.024 477.785 962.8 479.519 961.372C481.253 959.842 482.732 958.006 483.956 955.864V936.892ZM575.141 937.045C575.141 942.757 574.274 947.908 572.54 952.498C570.908 957.088 568.664 961.015 565.808 964.279C562.952 967.441 559.586 969.889 555.71 971.623C551.834 973.357 547.754 974.224 543.47 974.224C538.778 974.224 534.749 973.612 531.383 972.388C528.017 971.062 524.804 969.022 521.744 966.268H521.438L520.52 973H514.247V864.37H522.203V910.117C524.345 907.771 527.303 905.527 531.077 903.385C534.953 901.243 539.339 900.172 544.235 900.172C548.519 900.172 552.548 900.937 556.322 902.467C560.096 903.997 563.36 906.292 566.114 909.352C568.97 912.412 571.163 916.288 572.693 920.98C574.325 925.57 575.141 930.925 575.141 937.045ZM566.879 937.198C566.879 927.1 564.686 919.501 560.3 914.401C556.016 909.199 550.406 906.598 543.47 906.598C541.328 906.598 539.186 906.955 537.044 907.669C535.004 908.281 533.066 909.148 531.23 910.27C529.394 911.29 527.711 912.514 526.181 913.942C524.651 915.268 523.325 916.645 522.203 918.073V959.689C524.243 962.035 526.997 963.973 530.465 965.503C534.035 967.033 537.758 967.798 541.634 967.798C545 967.798 548.162 967.135 551.12 965.809C554.18 964.483 556.883 962.545 559.229 959.995C561.575 957.343 563.411 954.13 564.737 950.356C566.165 946.48 566.879 942.094 566.879 937.198ZM593.736 973V864.37H601.692V973H593.736ZM679.861 937.045H628.606V939.187C628.606 948.163 631.003 955.201 635.797 960.301C640.693 965.299 647.323 967.798 655.687 967.798C662.317 967.798 668.539 966.676 674.353 964.432L676.189 970.552C673.537 971.674 670.324 972.541 666.55 973.153C662.878 973.867 659.104 974.224 655.228 974.224C650.434 974.224 645.895 973.51 641.611 972.082C637.429 970.654 633.757 968.461 630.595 965.503C627.433 962.443 624.934 958.618 623.098 954.028C621.262 949.336 620.344 943.726 620.344 937.198C620.344 931.588 621.109 926.488 622.639 921.898C624.169 917.308 626.362 913.432 629.218 910.27C632.074 907.006 635.44 904.507 639.316 902.773C643.192 901.039 647.527 900.172 652.321 900.172C656.401 900.172 660.124 900.937 663.49 902.467C666.958 903.895 669.865 905.986 672.211 908.74C674.659 911.494 676.546 914.809 677.872 918.685C679.198 922.561 679.861 926.845 679.861 931.537V937.045ZM671.599 930.619C671.599 927.661 671.242 924.754 670.528 921.898C669.814 918.94 668.641 916.339 667.009 914.095C665.479 911.851 663.439 910.066 660.889 908.74C658.441 907.312 655.432 906.598 651.862 906.598C645.64 906.598 640.438 908.689 636.256 912.871C632.176 917.053 629.728 922.969 628.912 930.619H671.599Z" fill="#777777"/>
<path d="M0 370C0 70 173 0 370 0C567 0 740 70 740 370C740 670 567 740 370 740C173 740 0 670 0 370Z" fill="#FAFA00"/>
<path d="M446.379 493.768V303.387C446.379 288.803 443.417 276.157 437.492 265.447C431.796 254.51 423.137 246.079 411.516 240.154C399.895 234.23 385.539 231.268 368.449 231.268C352.499 231.268 338.485 234.002 326.408 239.471C314.559 244.939 305.217 252.117 298.381 261.004C291.773 269.891 288.469 279.461 288.469 289.715H225.236C225.236 276.499 228.654 263.396 235.49 250.408C242.326 237.42 252.124 225.685 264.885 215.203C277.873 204.493 293.368 196.062 311.369 189.91C329.598 183.53 349.878 180.34 372.209 180.34C399.097 180.34 422.795 184.897 443.303 194.012C464.038 203.126 480.217 216.912 491.838 235.369C503.687 253.598 509.611 276.499 509.611 304.07V476.336C509.611 488.641 510.637 501.743 512.688 515.643C514.966 529.542 518.27 541.505 522.6 551.531L525 557H456.633C453.443 549.708 450.936 540.024 449.113 527.947C447.29 515.643 446.379 504.249 446.379 493.768ZM457.316 332.781L458 377.215H394.084C376.083 377.215 360.018 378.696 345.891 381.658C331.763 384.393 319.914 388.608 310.344 394.305C300.773 400.001 293.482 407.179 288.469 415.838C283.456 424.269 280.949 434.181 280.949 445.574C280.949 457.195 283.57 467.791 288.811 477.361C294.051 486.932 301.913 494.565 312.395 500.262C323.104 505.73 336.206 508.465 351.701 508.465C371.07 508.465 388.16 504.363 402.971 496.16C417.782 487.957 429.517 477.931 438.176 466.082C447.062 454.233 451.848 442.726 452.531 431.561L479.533 461.98C477.938 471.551 473.609 482.146 466.545 493.768C459.481 505.389 450.025 516.554 438.176 527.264C426.555 537.745 412.655 546.518 396.477 553.582C380.526 560.418 362.525 563.836 342.473 563.836C317.408 563.836 295.419 558.937 276.506 549.139C257.821 539.34 243.238 526.238 232.756 509.832C222.502 493.198 217.375 474.627 217.375 454.119C217.375 434.295 221.249 416.863 228.996 401.824C236.743 386.557 247.909 373.911 262.492 363.885C277.076 353.631 294.621 345.883 315.129 340.643C335.637 335.402 358.537 332.781 383.83 332.781H457.316Z" fill="white"/>
</svg>
